CddbId:6312471a:[150, 13424, 26796, 41575, 55573, 69974, 82657, 96787, 111798, 124679, 138451, 151284, 166056, 178661, 193153, 207362, 221441, 234220, 248123, 262931, 276837, 289986, 303849, 317516, 332270, 342278]:351075:74:6312471a 26 150 13424 26796 41575 55573 69974 82657 96787 111798 124679 138451 151284 166056 178661 193153 207362 221441 234220 248123 262931 276837 289986 303849 317516 332270 342278 4681: 26 0 0 0 0 0 0 0 0 0 0 0 0 0 0 0 0 0 0 0 0 0 0 0 0 0 0 4681
num_tracks: 26
offsets: [150, 13424, 26796, 41575, 55573, 69974, 82657, 96787, 111798, 124679, 138451, 151284, 166056, 178661, 193153, 207362, 221441, 234220, 248123, 262931, 276837, 289986, 303849, 317516, 332270, 342278]
extents: [0, 0, 0, 0, 0, 0, 0, 0, 0, 0, 0, 0, 0, 0, 0, 0, 0, 0, 0, 0, 0, 0, 0, 0, 0, 0]
total_length: 4681
cddb: [1662142234, 26, 150, 13424, 26796, 41575, 55573, 69974, 82657, 96787, 111798, 124679, 138451, 151284, 166056, 178661, 193153, 207362, 221441, 234220, 248123, 262931, 276837, 289986, 303849, 317516, 332270, 342278, 4681]
musicbrainz: ('26 150 13424 26796 41575 55573 69974 82657 96787 111798 124679 138451 151284 166056 178661 193153 207362 221441 234220 248123 262931 276837 289986 303849 317516 332270 342278 351113', 'MQKExLvWAjtAAGpIVuIAJKHPkcQ-')

CD record:
Device type    : Removable CD-ROM
Version        : 0
Response Format: 2
Capabilities   : 
Vendor_info    : 'FREECOM_'
Identification : 'DVD+/-RW16H4    '
Revision       : 'FR00'
Device seems to be: Generic mmc2 DVD-R/DVD-RW.
Using generic SCSI-3/mmc   CD-R/CD-RW driver (mmc_cdr).
Driver flags   : MMC-3 SWABAUDIO BURNFREE 
Supported modes: TAO PACKET SAO SAO/R96R RAW/R96R
first: 1 last 26
track:   1 lba:         0 (        0) 00:02:00 adr: 1 control: 0 mode: -1
track:   2 lba:     13274 (    53096) 02:58:74 adr: 1 control: 0 mode: -1
track:   3 lba:     26646 (   106584) 05:57:21 adr: 1 control: 0 mode: -1
track:   4 lba:     41425 (   165700) 09:14:25 adr: 1 control: 0 mode: -1
track:   5 lba:     55423 (   221692) 12:20:73 adr: 1 control: 0 mode: -1
track:   6 lba:     69824 (   279296) 15:32:74 adr: 1 control: 0 mode: -1
track:   7 lba:     82507 (   330028) 18:22:07 adr: 1 control: 0 mode: -1
track:   8 lba:     96637 (   386548) 21:30:37 adr: 1 control: 0 mode: -1
track:   9 lba:    111648 (   446592) 24:50:48 adr: 1 control: 0 mode: -1
track:  10 lba:    124529 (   498116) 27:42:29 adr: 1 control: 0 mode: -1
track:  11 lba:    138301 (   553204) 30:46:01 adr: 1 control: 0 mode: -1
track:  12 lba:    151134 (   604536) 33:37:09 adr: 1 control: 0 mode: -1
track:  13 lba:    165906 (   663624) 36:54:06 adr: 1 control: 0 mode: -1
track:  14 lba:    178511 (   714044) 39:42:11 adr: 1 control: 0 mode: -1
track:  15 lba:    193003 (   772012) 42:55:28 adr: 1 control: 0 mode: -1
track:  16 lba:    207212 (   828848) 46:04:62 adr: 1 control: 0 mode: -1
track:  17 lba:    221291 (   885164) 49:12:41 adr: 1 control: 0 mode: -1
track:  18 lba:    234070 (   936280) 52:02:70 adr: 1 control: 0 mode: -1
track:  19 lba:    247973 (   991892) 55:08:23 adr: 1 control: 0 mode: -1
track:  20 lba:    262781 (  1051124) 58:25:56 adr: 1 control: 0 mode: -1
track:  21 lba:    276687 (  1106748) 61:31:12 adr: 1 control: 0 mode: -1
track:  22 lba:    289836 (  1159344) 64:26:36 adr: 1 control: 0 mode: -1
track:  23 lba:    303699 (  1214796) 67:31:24 adr: 1 control: 0 mode: -1
track:  24 lba:    317366 (  1269464) 70:33:41 adr: 1 control: 0 mode: -1
track:  25 lba:    332120 (  1328480) 73:50:20 adr: 1 control: 0 mode: -1
track:  26 lba:    342128 (  1368512) 76:03:53 adr: 1 control: 0 mode: -1
track:lout lba:    350963 (  1403852) 78:01:38 adr: 1 control: 0 mode: -1
